<svg xmlns="http://www.w3.org/2000/svg" version="1.1" xmlns:xlink="http://www.w3.org/1999/xlink" xmlns:svgjs="http://svgjs.dev/svgjs" width="2000" height="1252" viewBox="0 0 2000 1252"><g transform="matrix(1,0,0,1,-1.2121212121212466,122.63409400456158)"><svg viewBox="0 0 396 248" data-background-color="#ffffff" preserveAspectRatio="xMidYMid meet" height="1252" width="2000" xmlns="http://www.w3.org/2000/svg" xmlns:xlink="http://www.w3.org/1999/xlink"><g id="tight-bounds" transform="matrix(1,0,0,1,0.2400000000000091,0.4000000000000057)"><svg viewBox="0 0 395.52 247.2" height="247.2" width="395.52"><g><svg></svg></g><g><svg viewBox="0 0 395.52 247.2" height="247.2" width="395.52"><g transform="matrix(1,0,0,1,75.54432,103.43414745983499)"><svg viewBox="0 0 244.43135999999998 40.33170508033" height="40.33170508033" width="244.43135999999998"><g><svg viewBox="0 0 244.43135999999998 40.33170508033" height="40.33170508033" width="244.43135999999998"><g><svg viewBox="0 0 244.43135999999998 40.33170508033" height="40.33170508033" width="244.43135999999998"><g><svg viewBox="0 0 244.43135999999998 40.33170508033" height="40.33170508033" width="244.43135999999998"><g id="textblocktransform"><svg viewBox="0 0 244.43135999999998 40.33170508033" height="40.33170508033" width="244.43135999999998" id="textblock"><g><svg viewBox="0 0 244.43135999999998 40.33170508033" height="40.33170508033" width="244.43135999999998"><g transform="matrix(1,0,0,1,0,0)"><svg width="244.43135999999998" viewBox="0.2 -37.75 230.28 38" height="40.33170508033" data-palette-color="#6366f1"><path d="M8.3-2.05L0.2 0.05Q1.55-6.6 2.8-12.95L2.8-12.95Q3.25-15.65 3.8-18.57 4.35-21.5 4.83-24.38 5.3-27.25 5.73-29.93 6.15-32.6 6.4-34.8L6.4-34.8Q9.25-35.7 12.55-36.13 15.85-36.55 19.1-36.55L19.1-36.55Q21.05-36.55 22.33-36.1 23.6-35.65 24.33-34.83 25.05-34 25.35-32.9 25.65-31.8 25.65-30.45L25.65-30.45Q25.65-28.45 24.95-26.53 24.25-24.6 23.08-22.88 21.9-21.15 20.38-19.73 18.85-18.3 17.1-17.4L17.1-17.4Q18-15.4 19.03-13.03 20.05-10.65 20.95-8.5L20.95-8.5Q21.95-6 23-3.5L23-3.5 15.25-0.8Q14.25-4 13.45-6.8L13.45-6.8Q13.1-7.95 12.75-9.18 12.4-10.4 12.1-11.5 11.8-12.6 11.6-13.48 11.4-14.35 11.35-14.9L11.35-14.9 10.7-14.7Q10.4-13.1 9.98-10.95 9.55-8.8 9.2-6.8L9.2-6.8Q8.75-4.45 8.3-2.05L8.3-2.05ZM13.55-29.6L11.95-21.65Q12.9-21.75 14.28-22.45 15.65-23.15 16.9-24.13 18.15-25.1 19.05-26.15 19.95-27.2 19.95-28L19.95-28Q19.95-28.55 19.6-28.88 19.25-29.2 18.63-29.38 18-29.55 17.25-29.6 16.5-29.65 15.7-29.65L15.7-29.65Q15.15-29.65 14.58-29.63 14-29.6 13.55-29.6L13.55-29.6ZM38.75-2.45L22.6 0.05 29.15-35.5 44.95-36.85Q44.6-35.75 44.35-34.6L44.35-34.6Q44.1-33.65 43.87-32.63 43.65-31.6 43.5-30.8L43.5-30.8Q43-30.75 42.07-30.73 41.15-30.7 40.1-30.68 39.05-30.65 37.97-30.65 36.9-30.65 36.1-30.65L36.1-30.65 34.35-21.7Q35.9-21.8 37.25-21.85L37.25-21.85Q38.35-21.9 39.5-21.9 40.65-21.9 41.2-21.95L41.2-21.95Q41-20.55 40.82-19.2 40.65-17.85 40.4-16.45L40.4-16.45Q39.9-16.4 38.77-16.38 37.65-16.35 36.5-16.3L36.5-16.3Q35.2-16.25 33.65-16.2L33.65-16.2 31.95-7 39.25-8.15 38.75-2.45ZM46-0.85L37.75-0.3Q39.95-6.95 41.95-13.35L41.95-13.35Q42.8-16.05 43.7-19 44.6-21.95 45.5-24.85 46.4-27.75 47.17-30.45 47.95-33.15 48.55-35.45L48.55-35.45Q51.3-35.45 53.75-35.75 56.2-36.05 59.05-36.3L59.05-36.3Q58.9-35.2 58.72-33.83 58.55-32.45 58.32-30.95 58.1-29.45 57.85-27.85 57.6-26.25 57.25-23.75 56.9-21.25 56.3-17.5L56.3-17.5 56.95-17.5Q58.4-21.3 59.35-23.83 60.3-26.35 60.9-27.95 61.5-29.55 62.12-31.08 62.75-32.6 63.32-33.98 63.9-35.35 64.4-36.4L64.4-36.4Q65.65-36.5 66.75-36.65 67.84-36.8 68.95-36.98 70.05-37.15 71.17-37.33 72.3-37.5 73.65-37.75L73.65-37.75Q73.15-34.85 72.7-31.8 72.25-28.75 71.9-25.73 71.55-22.7 71.22-19.75 70.9-16.8 70.65-14.15L70.65-14.15Q70.05-7.95 69.59-2.05L69.59-2.05 60.9-0.5Q60.9-0.75 60.97-1.85 61.05-2.95 61.17-4.55 61.3-6.15 61.52-8.1 61.75-10.05 61.97-12 62.2-13.95 62.45-15.78 62.7-17.6 62.95-18.9L62.95-18.9 62.5-18.9Q61.8-16.8 60.95-14.48 60.1-12.15 59.22-9.75 58.35-7.35 57.5-5.05 56.65-2.75 56-0.65L56-0.65Q54.25-0.6 53-0.53 51.75-0.45 50.1-0.35L50.1-0.35 51.7-18.9 50.95-18.9Q50.85-18.25 50.45-16.73 50.05-15.2 49.52-13.23 49-11.25 48.4-9.13 47.8-7 47.27-5.18 46.75-3.35 46.4-2.18 46.05-1 46-0.85L46-0.85ZM98.19-27.05Q98.19-22.95 97.32-19.33 96.44-15.7 94.99-12.68 93.54-9.65 91.62-7.28 89.69-4.9 87.59-3.23 85.49-1.55 83.34-0.68 81.19 0.2 79.24 0.2L79.24 0.2Q77.59 0.2 76.24-0.43 74.89-1.05 73.89-2.27 72.89-3.5 72.32-5.43 71.74-7.35 71.74-10.05L71.74-10.05Q71.74-12.85 72.44-15.95 73.14-19.05 74.34-22.1 75.54-25.15 77.29-27.9 79.04-30.65 81.14-32.77 83.24-34.9 85.64-36.15 88.04-37.4 90.64-37.4L90.64-37.4Q92.89-37.4 94.37-36.48 95.84-35.55 96.67-34.08 97.49-32.6 97.84-30.75 98.19-28.9 98.19-27.05L98.19-27.05ZM79.19-11.35Q79.19-10.8 79.39-10.2 79.59-9.6 79.94-9.15 80.29-8.7 80.82-8.38 81.34-8.05 81.94-8.05L81.94-8.05Q84.19-8.05 85.94-9.6 87.69-11.15 88.84-13.4 89.99-15.65 90.62-18.2 91.24-20.75 91.24-22.85L91.24-22.85Q91.24-23.45 91.17-24.15 91.09-24.85 90.87-25.45 90.64-26.05 90.17-26.48 89.69-26.9 88.89-26.9L88.89-26.9Q87.29-26.9 85.94-26.1 84.59-25.3 83.52-23.98 82.44-22.65 81.64-20.98 80.84-19.3 80.27-17.57 79.69-15.85 79.44-14.2 79.19-12.55 79.19-11.35L79.19-11.35ZM108.34-1.35L99.34 0.05Q100.49-5.45 101.54-10.8L101.54-10.8Q101.99-13.05 102.44-15.5 102.89-17.95 103.32-20.33 103.74-22.7 104.07-24.93 104.39-27.15 104.64-29L104.64-29Q103.49-29.15 102.32-29.1 101.14-29.05 99.99-29.4L99.99-29.4Q100.04-30.2 100.04-31.25 100.04-32.3 100.09-33.35L100.09-33.35Q100.14-34.5 100.19-35.8L100.19-35.8Q101.49-35.7 102.79-35.65 104.09-35.6 105.39-35.6L105.39-35.6Q107.94-35.6 110.32-35.73 112.69-35.85 114.72-36.02 116.74-36.2 118.69-36.45L118.69-36.45 118.14-33.75Q117.89-32.6 117.67-31.4 117.44-30.2 117.24-29.35L117.24-29.35Q116.14-29.05 115.02-28.93 113.89-28.8 112.79-28.6L112.79-28.6Q112.44-26.9 112.04-24.83 111.64-22.75 111.27-20.53 110.89-18.3 110.54-16 110.19-13.7 109.84-11.6L109.84-11.6Q109.04-6.65 108.34-1.35L108.34-1.35ZM129.49-2.45L113.34 0.05 119.89-35.5 135.69-36.85Q135.34-35.75 135.09-34.6L135.09-34.6Q134.84-33.65 134.61-32.63 134.39-31.6 134.24-30.8L134.24-30.8Q133.74-30.75 132.81-30.73 131.89-30.7 130.84-30.68 129.79-30.65 128.71-30.65 127.64-30.65 126.84-30.65L126.84-30.65 125.09-21.7Q126.64-21.8 127.99-21.85L127.99-21.85Q129.09-21.9 130.24-21.9 131.39-21.9 131.94-21.95L131.94-21.95Q131.74-20.55 131.56-19.2 131.39-17.85 131.14-16.45L131.14-16.45Q130.64-16.4 129.51-16.38 128.39-16.35 127.24-16.3L127.24-16.3Q125.94-16.25 124.39-16.2L124.39-16.2 122.69-7 129.99-8.15 129.49-2.45ZM165.18-25.55Q165.18-22.95 164.43-20.03 163.68-17.1 162.33-14.23 160.98-11.35 159.01-8.72 157.03-6.1 154.53-4.13 152.03-2.15 149.06-0.95 146.08 0.25 142.73 0.25L142.73 0.25Q142.03 0.25 141.33 0.18 140.63 0.1 139.93 0L139.93 0Q141.28-6.9 142.58-13.45L142.58-13.45Q143.08-16.2 143.63-19.18 144.18-22.15 144.68-25.05 145.18-27.95 145.66-30.6 146.13-33.25 146.43-35.4L146.43-35.4Q148.58-35.8 150.78-36.15 152.98-36.5 155.28-36.5L155.28-36.5Q157.98-36.5 159.86-35.65 161.73-34.8 162.91-33.3 164.08-31.8 164.63-29.8 165.18-27.8 165.18-25.55L165.18-25.55ZM153.38-29.45Q152.83-26.5 152.23-23.8 151.63-21.1 151.03-18.35 150.43-15.6 149.83-12.6 149.23-9.6 148.68-6.05L148.68-6.05Q149.88-6.85 151.01-8.22 152.13-9.6 153.13-11.4 154.13-13.2 154.96-15.2 155.78-17.2 156.38-19.1 156.98-21 157.31-22.65 157.63-24.3 157.63-25.5L157.63-25.5Q157.63-27.35 156.61-28.4 155.58-29.45 153.38-29.45L153.38-29.45ZM178.33-2.45L162.18 0.05 168.73-35.5 184.53-36.85Q184.18-35.75 183.93-34.6L183.93-34.6Q183.68-33.65 183.46-32.63 183.23-31.6 183.08-30.8L183.08-30.8Q182.58-30.75 181.66-30.73 180.73-30.7 179.68-30.68 178.63-30.65 177.56-30.65 176.48-30.65 175.68-30.65L175.68-30.65 173.93-21.7Q175.48-21.8 176.83-21.85L176.83-21.85Q177.93-21.9 179.08-21.9 180.23-21.9 180.78-21.95L180.78-21.95Q180.58-20.55 180.41-19.2 180.23-17.85 179.98-16.45L179.98-16.45Q179.48-16.4 178.36-16.38 177.23-16.35 176.08-16.3L176.08-16.3Q174.78-16.25 173.23-16.2L173.23-16.2 171.53-7 178.83-8.15 178.33-2.45ZM200.98-12.35Q200.98-9.55 199.9-7.28 198.83-5 197-3.35 195.18-1.7 192.7-0.8 190.23 0.1 187.38 0.1L187.38 0.1Q185.38 0.1 183.38-0.98 181.38-2.05 179.53-4.4L179.53-4.4 183.23-11.65Q183.58-11 184.28-10.33 184.98-9.65 185.85-9.15 186.73-8.65 187.6-8.33 188.48-8 189.18-8L189.18-8Q189.78-8 190.43-8.2 191.08-8.4 191.63-8.8 192.18-9.2 192.5-9.73 192.83-10.25 192.83-10.95L192.83-10.95Q192.83-12.15 192.05-13.18 191.28-14.2 190.13-15.13 188.98-16.05 187.63-17 186.28-17.95 185.15-19 184.03-20.05 183.23-21.35 182.43-22.65 182.43-24.25L182.43-24.25Q182.43-26.85 183.98-29.1 185.53-31.35 187.85-32.98 190.18-34.6 192.93-35.55 195.68-36.5 198.13-36.5L198.13-36.5Q199.48-36.5 200.68-36.18 201.88-35.85 202.75-35.13 203.63-34.4 204.15-33.3 204.68-32.2 204.68-30.55L204.68-30.55Q204.68-29.85 204.55-29.15 204.43-28.45 204.33-27.65L204.33-27.65 197.08-25.55Q197.18-25.95 197.25-26.35 197.33-26.75 197.33-27.15L197.33-27.15Q197.33-28.65 196.8-29.33 196.28-30 195.43-30L195.43-30Q195.03-30 194.45-29.7 193.88-29.4 193.3-28.93 192.73-28.45 192.33-27.8 191.93-27.15 191.93-26.4L191.93-26.4Q191.93-25.2 192.6-24.4 193.28-23.6 194.28-22.9 195.28-22.2 196.45-21.48 197.63-20.75 198.63-19.6 199.63-18.45 200.3-16.73 200.98-15 200.98-12.35L200.98-12.35ZM208.78-1.15L200.68 0.05Q202.18-6.95 203.48-13.55L203.48-13.55Q203.98-16.4 204.53-19.45 205.08-22.5 205.55-25.5 206.03-28.5 206.4-31.33 206.78-34.15 206.98-36.45L206.98-36.45Q208.13-36.35 209.58-36.27 211.03-36.2 212.28-36.1L212.28-36.1Q213.78-36 215.28-36L215.28-36Q215.23-35.8 215.13-35.25 215.03-34.7 214.88-33.93 214.73-33.15 214.55-32.2 214.38-31.25 214.18-30.3L214.18-30.3Q213.78-28.1 213.28-25.35L213.28-25.35 213.58-25.4Q214.08-26.2 215-27.63 215.93-29.05 216.93-30.65 217.93-32.25 218.88-33.73 219.83-35.2 220.48-36.25L220.48-36.25Q222.98-36.45 225.48-36.7 227.98-36.95 230.48-37.35L230.48-37.35Q228.13-34.2 225.93-31.15L225.93-31.15Q224.98-29.85 224-28.45 223.03-27.05 222.08-25.7 221.13-24.35 220.3-23.1 219.48-21.85 218.83-20.8L218.83-20.8Q219.93-15.75 221.43-11.05 222.93-6.35 224.48-1.45L224.48-1.45Q223.33-1.5 222.13-1.53 220.93-1.55 219.78-1.55L219.78-1.55Q218.33-1.55 216.98-1.53 215.63-1.5 214.18-1.45L214.18-1.45Q213.73-4.7 213.2-8.28 212.68-11.85 212.23-15.1L212.23-15.1 211.33-14.05Q210.98-12.55 210.55-10.35 210.13-8.15 209.73-6.1L209.73-6.1Q209.28-3.7 208.78-1.15L208.78-1.15Z" opacity="1" transform="matrix(1,0,0,1,0,0)" fill="#6366f1" class="wordmark-text-0" data-fill-palette-color="primary" id="text-0"></path></svg></g></svg></g></svg></g></svg></g><g></g></svg></g></svg></g></svg></g><g><path d="M79.205 93.913A122.216 122.216 0 0 1 316.315 93.913L312.678 93.913A118.579 118.579 0 0 0 82.842 93.913L79.205 93.913M79.205 153.287A122.216 122.216 0 0 0 316.315 153.287L312.678 153.287A118.579 118.579 0 0 1 82.842 153.287L79.205 153.287" fill="#4f46e5" stroke="transparent" data-fill-palette-color="tertiary"></path></g></svg></g><defs></defs></svg><rect width="395.52" height="247.2" fill="none" stroke="none" visibility="hidden"></rect></g></svg></g></svg>